# xmcd
#
# Track frame offsets:
#	150
#	16181
#	31545
#	50963
#	68201
#	87184
#	104380
#	119108
#	138677
#	157375
#	182093
#
# Disc length: 3214 seconds
#
# Revision: 1
# Processed by: cddbd v1.5.2PL0 Copyright (c) Steve Scherf et al.
# Submitted via: EasyCDDAExtractor 16.0.6.1
#
DISCID=9e0c8c0b
DTITLE=Tick Tock - Marcando el ritmo
DYEAR=2004
DGENRE=Pop
TTITLE0=Boogie, boogie
TTITLE1=Ven al baile
TTITLE2=To quiero mas
TTITLE3=Contigo se ira
TTITLE4=Dime que si
TTITLE5=Siento-/ baka lan a nu meme
TTITLE6=Bidi bidi bom bom
TTITLE7=Abuela lievame
TTITLE8=Descorazonado
TTITLE9=Burrito sabanero
TTITLE10=Data
EXTD=
EXTT0=
EXTT1=
EXTT2=
EXTT3=
EXTT4=
EXTT5=
EXTT6=
EXTT7=
EXTT8=
EXTT9=
EXTT10=
PLAYORDER=
